<svg width="56" height="54" viewBox="0 0 56 54" fill="none" xmlns="http://www.w3.org/2000/svg"><path d="M56 53.595H0v-6.183h55.593c.12 1.861.255 3.81.407 6.183zm-2.405-1.63c.504-3.091-1.206-2.78-2.58-2.78-15.498-.016-31.004-.008-46.501 0-.528 0-1.143-.111-1.55.12-.472.272-1.055.879-1.03 1.318.015.44.662 1.119 1.134 1.215 1.014.207 2.085.127 3.14.127 13.132.008 26.274 0 39.407 0h7.98zM51.366 12.062H4.905l-.36-.6c.711-.574 1.342-1.31 2.141-1.693C12.989 6.782 19.3 3.786 25.683.974c1.182-.52 2.932-.767 4.034-.272 6.838 3.084 13.573 6.407 20.331 9.682.304.144.471.576 1.318 1.678zM11.871 9.713c.031.152.063.304.088.456H43.76c-4.697-2.764-9.498-5.137-14.371-7.342-.823-.375-2.101-.303-2.948.072-4.897 2.189-9.722 4.53-14.571 6.814zM4.73 44.304c2.683-2.1 43.37-2.148 46.365-.16-4.937 1.215-10.018.648-15.035.752-5.368.103-10.744.047-16.12.015-5.081-.04-10.186.144-15.21-.607zM43.307 15.809h5.488v11.255c0 2.924.024 5.848-.008 8.764-.048 4.482-.527 4.825-5.48 3.747V15.809zm3.387.75c-2.437 2.373-2.996 8.604-2.213 19.141.08 1.039.711 2.037 1.087 3.052l1.126-.264V16.56zM25.068 27.568c-.008-3.051.024-6.095-.016-9.147-.024-1.933.671-2.9 2.764-2.9 2.053 0 2.82.88 2.812 2.852-.032 6.367-.032 12.726-.008 19.093.008 2.07-1.014 2.748-2.948 2.724-1.853-.032-2.604-.902-2.596-2.676.008-3.315 0-6.63-.008-9.946zm2.19 11.168l1.565-.263c.192-6.16.455-12.31.52-18.47.007-.959-.864-1.933-1.327-2.9-.583.983-1.63 1.95-1.662 2.948-.167 5.153-.135 10.321-.031 15.474.015 1.086.607 2.149.934 3.211zM7.66 15.769c1.295-.072 2.198-.176 3.108-.16.496.008.983.216 1.694.383v23.862c-1.51.08-2.972.16-4.801.256V15.769zm1.367.83v21.85c.28.135.56.279.83.415.488-.671 1.27-1.279 1.423-2.021 1.118-5.44.032-18.294-2.253-20.244zM16.392 39.727V15.905h5.129V28.99c0 2.38.024 4.761-.008 7.15-.048 4.21-.152 4.273-5.12 3.587zm3.46-23.191c-2.39 2.364-3.124 10.896-2.206 19.58.096.918.735 1.773 1.127 2.66l1.086-.288c-.008-7.07-.008-14.131-.008-21.952zM34.503 15.793h4.745v23.686c-4.586 1.23-5.049.95-5.08-3.323-.04-5.568-.025-11.136.007-16.704.008-1.159.2-2.317.328-3.659zm1.51.839V38.52l1.15.24c.351-1.014.959-2.021 1.022-3.051.703-11.392.208-16.904-2.172-19.077z" fill="#fff"/></svg>