<svg width="63" height="35" viewBox="0 0 63 35" fill="none" xmlns="http://www.w3.org/2000/svg"><g clip-path="url(#a)" fill="#fff"><path d="M31.43.434c11.64.16 21.52 4.8 29.46 14.02 2.15 2.5 1.8 3.98-.14 6.27-15.84 18.68-43.53 18.62-59.23-.1-2.04-2.43-2.02-4.1.05-6.36C9.54 5.544 19.17.564 31.43.434zm28.05 16.95c-13.82-19.18-43.62-19.07-56.43.22 13.04 19.12 44.36 18.99 56.43-.22z"/><path d="M43.34 17.374c.1 7.17-4.81 12.42-11.76 12.58-7.24.17-12.48-5.02-12.48-12.35 0-6.88 5.33-12.44 12-12.52 6.65-.07 12.15 5.45 12.24 12.29zm-2.11.3c.03-5.67-4.24-10.07-9.85-10.14-5.63-.08-10.05 4.19-10.18 9.83-.13 5.84 4.37 10.5 10.11 10.45 5.54-.05 9.89-4.5 9.92-10.14z"/></g><defs><clipPath id="a"><path fill="#fff" transform="translate(0 .434)" d="M0 0h62.35v34.27H0z"/></clipPath></defs></svg>