<svg width="76" height="35" viewBox="0 0 76 35" fill="none" xmlns="http://www.w3.org/2000/svg"><path d="M44.46 11.404c2.99-8.33 10.36-11.91 18.39-10.34 6.7 1.31 11.91 7.25 12.38 14.11.55 8.06-3.39 14.56-10.64 16.89-6.65 2.14-12.59.76-17.64-4.29-6.85-6.85-13.65-13.77-20.79-20.33-7.52-6.91-17.47-5.18-21.99 3.45-3.08 5.87-.92 13.56 4.86 17.29 6.14 3.96 12.68 2.88 17.46-3.04-2.23-.28-4.34-.55-7.21-.91 3.58-2.37 12.05-2.95 12.43-1.15.78 3.68.53 7.58.7 11.39-.69.04-1.38.08-2.07.11-.39-2.08-.78-4.16-1.07-5.69-4.04 1.34-8.06 3.43-12.25 3.87-7.39.78-13.76-3.84-16.03-10.48-2.47-7.24-.03-14.46 6.44-19.01 5.45-3.84 13.97-3.68 19.26 1.09 6.95 6.26 13.44 13.03 20.18 19.53 1.65 1.59 3.36 3.18 5.27 4.41 5.81 3.75 12.87 2.58 17.33-2.68 4.51-5.33 4.51-12.15 0-17.53-4.43-5.28-11.51-6.5-17.3-2.74-2.73 1.78-5.15 4.02-7.71 6.05z" fill="#fff"/></svg>