<svg width="53" height="51" viewBox="0 0 53 51" fill="none" xmlns="http://www.w3.org/2000/svg"><g clip-path="url(#a)"><path d="M4.441 8.439l2.696 4.204c-.428.368-.857.728-1.285 1.097C3.748 11.492.008 9.252 0 6.996-.008 4.672 3.615 2.332 5.657 0c.46.368.912.736 1.371 1.097-.943 1.412-1.885 2.823-3.155 4.718 8.36 0 16.37.015 24.38-.008 6.834-.023 12.841 1.949 17.797 6.751 7.363 7.15 9.093 18.159 4.153 26.766-5.275 9.175-16.051 13.617-26.337 10.855C12.864 47.226 6.514 38.565 7.184 27.364c.062-.982.444-1.948.678-2.915l1.223.046c.218 1.35.577 2.7.624 4.058.397 11.937 7.737 19.463 19.487 19.9 11.275.422 20.056-7.18 21.357-18.496 1.161-10.073-7.386-20.536-18.459-21.38-9.022-.69-18.147-.138-27.653-.138z" fill="#fff"/></g><defs><clipPath id="a"><path fill="#fff" d="M0 0h53v51H0z"/></clipPath></defs></svg>