<svg width="51" height="50" viewBox="0 0 51 50" fill="none" xmlns="http://www.w3.org/2000/svg"><path d="M13.974 25.796C9.69 19.666 6.099 14.768 2.799 9.676 1.667 7.938 1.03 5.76.609 3.692.164 1.493 1.533.318 3.66.188c3.348-.193 13.46 6.348 15.364 10.471-6.005-2.384-9.786-7.99-16.007-8.341C2.14 6.338 9.42 18.14 15.844 23.164c1.301-1.21 2.643-2.46 4.473-4.17-2.548-.358-4.412-.619-6.282-.88.02-.399.04-.797.054-1.196 2.867.152 5.747.24 8.6.516.38.034.976 1.01.962 1.532-.068 2.638-.305 5.277-.481 7.908-.38.007-.752.02-1.132.028-.156-1.87-.311-3.738-.528-6.26-1.803 1.45-3.213 2.59-5.659 4.556 2.82 2.453 5.28 4.693 7.881 6.754.495.391 1.803.385 2.298-.007 2.453-1.917 4.757-4.033 7.36-6.287-1.546-1.69-2.8-3.064-4.405-4.816-.319 2.556-.576 4.624-.902 7.228-1.558-2.061-1.958-8.925-.84-10.066.522-.53 1.572-.735 2.379-.722 2.473.055 4.933.29 7.407.447l.02 1.422-6.35.433c1.464 1.642 2.684 3.017 4.114 4.624 5.699-4.926 10.551-10.278 14.15-16.716.413-.743.555-2.268.122-2.715-.522-.529-1.966-.645-2.738-.302-3.375 1.477-6.655 3.168-9.949 4.81-1.03.515-2.02 1.113-3.022 1.676-.21-.295-.413-.59-.624-.88.854-.673 1.64-1.483 2.582-1.999 3.335-1.82 6.621-3.813 10.138-5.16 1.457-.556 4.006-.22 5.05.784.779.749.548 3.634-.272 4.857-2.744 4.102-5.916 7.916-9.006 11.763-1.464 1.828-3.124 3.49-4.805 5.339 2.602 3.401 5.184 6.514 7.455 9.84 1.762 2.59 3.395 5.352 4.567 8.251.59 1.45.657 3.985-.203 4.913-.834.893-3.517.99-4.778.295-4.391-2.418-8.573-5.235-12.706-8.094-2.108-1.456-3.931-3.332-6.066-5.167-3.578 2.336-7.04 4.782-10.68 6.926-2.785 1.642-5.693 3.188-8.735 4.226-1.552.536-3.517-.144-5.293-.282.156-1.828-.298-4.081.59-5.414 2.846-4.294 6.099-8.328 9.399-12.299 1.111-1.34 2.82-2.185 3.985-3.064zm.759.055c-4.256 5.194-8.37 10.052-12.246 15.102-.84 1.1-.813 2.879-1.186 4.342 1.566-.096 3.368.289 4.642-.37 4.548-2.358 8.953-5.01 13.337-7.669 1.362-.824 2.5-2.027 3.497-2.851-2.657-2.831-5.029-5.353-8.044-8.555zm32.102 22.2c.27-5.312-7.204-17.034-12.571-20.593-2.549 2.185-5.137 4.418-8.153 7.009 6.614 5.256 12.307 11.055 20.724 13.583z" fill="#fff"/></svg>