<svg width="29" height="53" viewBox="0 0 29 53" fill="none" xmlns="http://www.w3.org/2000/svg"><path d="M.319 52.432c-.707-4.854-.51-8.714 3.455-11.387.447-.303.832-1.035.872-1.6.58-8.236 1.287-16.472 1.507-24.724.055-2.077-1.877-4.138-2.246-6.31-.424-2.467-.11-5.069-.117-7.607 2.096.214 4.193.43 7.216.732 2.482-2.372 4.531-1.974 7.217 1.034.448-.358.848-.875 1.374-1.058C20.94 1.05 22.393.342 23.69.533c.62.088 1.476 2.045 1.358 3.056-.243 2.06-1.154 4.034-1.649 6.071-.487 2.006-1.201 4.075-1.115 6.08.33 7.329.872 14.658 1.555 21.97.125 1.337 1.233 2.587 1.94 3.844.824 1.472 1.955 2.817 2.52 4.377 1.689 4.67.377 6.485-4.444 6.493-7.743.016-15.478.008-23.535.008zm21.587-11.483c-.455-6.278-.754-12.167-1.335-18.015-.934-9.343-1.02-9.335-10.436-8.563-.37.032-.73.207-1.618.47-.597 8.514-1.21 17.18-1.83 26.108h15.22zM14.273 1.56c-3.29 3.184-4.06 3.2-8.732.518-1.5 4.185-1.068 5.029 2.787 5.093 3.856.063 7.712.063 11.568 0 4.075-.064 4.712-1.321 2.575-5.404-2.677 3-5.465 3.454-8.198-.206zM2.023 48.502c3.337 2.626 22.624 2.252 24.673 0H2.023zm23.48-2.904c-1.375-2.07-12.51-3.136-20.269-2.022-.777.112-1.444.931-3.03 2.021h23.299zM6.31 8.983c3.283 5.1 7.625 2.403 11.05 3.064 1.947.374 4.02.159 3.816-3.064H6.31z" fill="#fff"/></svg>