<svg width="242" height="80" viewBox="0 0 242 80" fill="none" xmlns="http://www.w3.org/2000/svg"><path d="M50.957 7.914c-2.451 5.082-4.941 5.767-9.456 3.18-9.456-5.404-20.46-3.141-27.388 4.837C7.38 23.677 6.89 35.444 12.926 43.9c5.909 8.276 17.351 11.482 27.091 7.345 6.09-2.587 10.179-6.867 10.643-15.298-4.89 0-9.507.35-14.023-.168-1.935-.22-4.889-1.978-5.237-3.53-.929-4.086 2.554-4.06 5.418-4.073 5.586-.026 11.172.168 16.745-.052 4.67-.181 5.78 2.095 5.78 6.272 0 19.448-19.57 31.926-39.218 24.685C8.643 54.853 1.858 46.383.297 34.383-1.354 21.711 3.819 11.638 14.513 4.901 25.014-1.72 36.07-1.45 46.88 4.642c1.445.802 2.62 2.082 4.077 3.272zM151.709 67.733c3.109-2.522 5.715-3.647 9.095.271 3.444 3.97 8.321 4.474 12.913 1.901 4.348-2.43 5.664-6.452 4.89-11.146-4.49.827-8.489 2.456-12.295 2.094-7.895-.75-13.519-5.379-15.932-12.982-2.451-7.733-.903-14.923 5.096-20.574 5.599-5.276 12.152-6.918 19.518-3.543 1.084.505 2.439.983 3.548.802 8.205-1.332 8.218-1.396 8.218 6.957 0 10.021.258 20.069-.194 30.065-.426 9.465-6.205 15.607-15.21 17.301-7.895 1.487-15.919-3-19.647-11.146zm27.684-25.798c.129-6.905-4.205-12.155-10.23-12.4-6.218-.26-11.442 5.198-11.52 12.025-.064 6.466 4.786 11.91 10.785 12.104 6.037.18 10.836-4.953 10.965-11.729zM82.473 21.686c11.43.09 19.931 8.573 19.905 19.836-.039 11.276-8.63 19.927-19.854 19.991-11.352.078-20.537-9.064-20.37-20.276.155-11.056 9.083-19.642 20.319-19.552zm10.591 19.823c0-6.685-4.747-11.755-10.9-11.625-5.883.116-10.58 5.069-10.721 11.315-.155 6.646 4.45 11.715 10.72 11.818 6.399.078 10.901-4.655 10.901-11.508zM241.186 52.9c-6.992 8.328-15.7 10.669-24.356 6.906-8.218-3.582-12.797-12.31-11.301-21.595 1.471-9.155 7.857-15.595 16.319-16.448 9.018-.905 15.584 3.737 20.047 14.858-8.424 3.594-16.912 7.228-25.504 10.9 4.012 5.845 9.895 7.604 14.539 3.673 4.554-3.867 6.992-1.85 10.256 1.707zm-10.178-19.396c-7.638-6.388-14.513-3.491-16.474 6.867 5.624-2.34 10.591-4.41 16.474-6.867zM145.324 41.405c.103 10.914-8.399 19.59-19.377 19.785-11.107.194-20.176-8.755-20.099-19.824.078-10.81 8.863-19.422 19.803-19.37 11.158.038 19.569 8.353 19.673 19.41zm-8.54.09c0-6.607-4.748-11.818-10.863-11.935-6.372-.116-11.52 5.263-11.507 12.026.013 6.53 4.812 11.78 10.914 11.961 6.334.168 11.456-5.21 11.456-12.051zM201.775 31.41c0 7.887-.038 15.775.026 23.663.026 3.272-1.045 5.923-4.696 4.875-1.715-.491-3.986-3.09-4.025-4.771-.296-16.203-.309-32.418.013-48.608.026-1.616 2.722-3.181 4.18-4.772 1.497 1.552 4.206 3.04 4.296 4.668.439 8.29.193 16.617.206 24.944z" fill="#fff"/></svg>