<svg width="182" height="24" viewBox="0 0 182 24" fill="none" xmlns="http://www.w3.org/2000/svg"><path d="M9.99 23.361v-1.393c-.532.54-1.186.96-1.915 1.228a5.486 5.486 0 0 1-2.29.323 6.167 6.167 0 0 1-2.34-.287 5.918 5.918 0 0 1-2.03-1.138 5 5 0 0 1-1.412-3.625c0-2.572 1.873-4.679 5.848-4.679h4.04v-.806c0-1.765-.92-2.54-3.186-2.54a3.876 3.876 0 0 0-1.826.263 3.654 3.654 0 0 0-1.46 1.069L.694 9.265c1.67-1.736 3.318-2.232 6.176-2.232 4.8 0 7.294 1.921 7.294 5.701v10.627H9.99zm-.1-6.816H6.509c-1.544 0-2.4.682-2.4 1.828 0 1.115.788 1.86 2.464 1.86.481.06.971.022 1.436-.112.465-.133.894-.36 1.258-.664.247-.282.43-.609.538-.96a2.51 2.51 0 0 0 .086-1.084v-.868zM27.997 23.361v-1.486a5.89 5.89 0 0 1-1.953 1.25 6.17 6.17 0 0 1-2.318.423 5.865 5.865 0 0 1-2.174-.328 5.62 5.62 0 0 1-1.867-1.097 5.937 5.937 0 0 1-1.389-2.118c-.3-.79-.42-1.631-.353-2.468V7.22h4.27v9.76c0 2.2 1.48 2.943 2.826 2.943.402.014.803-.054 1.174-.2.372-.146.706-.367.977-.647.272-.28.476-.613.598-.975s.16-.745.109-1.121v-9.76h4.27v16.142h-4.17zM41.698 23.362a4.899 4.899 0 0 1-1.938-.261 4.687 4.687 0 0 1-1.651-.991 4.364 4.364 0 0 1-1.071-1.545 4.15 4.15 0 0 1-.301-1.824v-7.99H34.93V7.684h1.807V2.913h4.27v4.77h3.024v3.068h-3.023v7.75c0 .93.46 1.456 1.479 1.456h1.544v3.409l-2.333-.004zM57.108 23.362v-9.856a2.488 2.488 0 0 0-.14-1.071 2.6 2.6 0 0 0-.585-.928 2.788 2.788 0 0 0-.931-.628 2.93 2.93 0 0 0-2.241 0c-.353.146-.67.36-.931.628a2.6 2.6 0 0 0-.585.928c-.125.344-.172.709-.14 1.071v9.856h-4.272V1.302h4.27v7.405a5.669 5.669 0 0 1 1.871-1.236 5.949 5.949 0 0 1 2.236-.437c3.746 0 5.717 2.479 5.717 5.888v10.44h-4.27zM68.706 16.545c-.04.476.028.955.2 1.404.173.45.447.858.802 1.2.355.34.784.605 1.257.776.473.17.98.244 1.486.214a4.996 4.996 0 0 0 2.126-.332 4.74 4.74 0 0 0 1.75-1.186l2.6 2.386a8.164 8.164 0 0 1-2.946 1.966 8.592 8.592 0 0 1-3.558.574c-4.041 0-7.918-1.734-7.918-8.272 0-5.267 3.023-8.242 7.458-8.242 4.763 0 7.458 3.285 7.458 7.715v1.797H68.706zm6.11-4.493a3.08 3.08 0 0 0-1.176-1.22 3.335 3.335 0 0 0-1.682-.453c-.594 0-1.177.157-1.682.453a3.08 3.08 0 0 0-1.176 1.22 4.237 4.237 0 0 0-.394 1.736h6.505a4.244 4.244 0 0 0-.394-1.736zM92.692 23.361v-9.76c0-2.199-1.48-2.943-2.825-2.943a2.924 2.924 0 0 0-1.175.2 2.783 2.783 0 0 0-.978.648c-.272.28-.476.612-.598.974s-.159.745-.108 1.122v9.76h-4.271V7.218h4.17v1.487a5.884 5.884 0 0 1 1.953-1.25 6.166 6.166 0 0 1 2.318-.423c.74-.028 1.479.083 2.173.328a5.62 5.62 0 0 1 1.868 1.097 5.937 5.937 0 0 1 1.388 2.119c.3.79.42 1.63.353 2.467v10.317h-4.268zM106.295 23.362a4.9 4.9 0 0 1-1.938-.261 4.68 4.68 0 0 1-1.651-.991 4.364 4.364 0 0 1-1.072-1.545 4.15 4.15 0 0 1-.3-1.824v-7.99h-1.807V7.684h1.808V2.913h4.271v4.77h3.023v3.068h-3.024v7.75c0 .93.46 1.456 1.479 1.456h1.544v3.409l-2.333-.004zM131.064 23.546c-3.417 0-7.655-1.734-7.655-8.272s4.238-8.241 7.655-8.241a7.68 7.68 0 0 1 3.077.5 7.318 7.318 0 0 1 2.574 1.669l-2.891 2.726a3.423 3.423 0 0 0-1.223-.94 3.627 3.627 0 0 0-1.537-.33 3.115 3.115 0 0 0-1.349.253 2.944 2.944 0 0 0-1.082.8 5.228 5.228 0 0 0-.953 3.563 5.32 5.32 0 0 0 .953 3.594c.289.343.66.617 1.082.8.422.183.884.27 1.349.253a3.627 3.627 0 0 0 1.537-.33c.479-.22.898-.542 1.223-.94l2.891 2.696a7.335 7.335 0 0 1-2.571 1.683 7.704 7.704 0 0 1-3.08.516zM148.051 23.36v-1.393a5.23 5.23 0 0 1-1.915 1.227 5.487 5.487 0 0 1-2.29.322 6.165 6.165 0 0 1-2.341-.287 5.914 5.914 0 0 1-2.029-1.138 4.997 4.997 0 0 1-1.412-3.625c0-2.572 1.873-4.679 5.848-4.679h4.04v-.806c0-1.765-.919-2.54-3.187-2.54a3.875 3.875 0 0 0-1.826.264c-.575.233-1.077.6-1.459 1.068l-2.727-2.51c1.675-1.734 3.318-2.23 6.177-2.23 4.8 0 7.294 1.92 7.294 5.7V23.36h-4.173zm-.1-6.816h-3.383c-1.544 0-2.4.682-2.4 1.828 0 1.115.789 1.86 2.464 1.86.481.06.971.022 1.436-.111a3.45 3.45 0 0 0 1.258-.665c.247-.282.431-.609.538-.96.108-.352.137-.721.086-1.084l.001-.868zM161.555 23.362a4.9 4.9 0 0 1-1.938-.261 4.68 4.68 0 0 1-1.651-.991 4.348 4.348 0 0 1-1.071-1.545 4.136 4.136 0 0 1-.301-1.824v-7.99h-1.807V7.684h1.807V2.913h4.271v4.77h3.023v3.068h-3.023v7.75c0 .93.46 1.456 1.479 1.456h1.544v3.409l-2.333-.004zM170.394 16.544c-.041.476.028.955.201 1.404.173.45.446.858.801 1.2.355.34.784.605 1.257.776.473.17.98.244 1.486.214a4.994 4.994 0 0 0 2.126-.332 4.741 4.741 0 0 0 1.75-1.186l2.6 2.386a8.17 8.17 0 0 1-2.945 1.965 8.585 8.585 0 0 1-3.555.575c-4.041 0-7.918-1.734-7.918-8.272 0-5.267 3.022-8.242 7.458-8.242 4.764 0 7.458 3.285 7.458 7.716v1.796h-10.719zm6.11-4.493a3.08 3.08 0 0 0-1.176-1.22 3.334 3.334 0 0 0-1.682-.453c-.595 0-1.177.157-1.682.453a3.074 3.074 0 0 0-1.176 1.22 4.221 4.221 0 0 0-.394 1.736h6.5a4.234 4.234 0 0 0-.389-1.736h-.001z" fill="#363A3F"/><path d="M118.708 0a3.003 3.003 0 0 0-2.055.807 2.67 2.67 0 0 0-.849 1.941c.001.728.308 1.425.854 1.94a3.002 3.002 0 0 0 2.057.802c.771 0 1.511-.288 2.057-.803a2.669 2.669 0 0 0 .854-1.939 2.67 2.67 0 0 0-.849-1.94A3.003 3.003 0 0 0 118.721 0h-.013z" fill="#25CC7E"/><path d="M110.918 7.68v3.584h5.222v12.11h1.887V16.49h1.363v6.884h1.9V7.68h-10.372z" class="primary-letter"/></svg>