<svg width="368" height="80" viewBox="0 0 368 80" fill="none" xmlns="http://www.w3.org/2000/svg"><path d="M37.951 18.995c0 4.694-.129 9.388.039 14.082.142 3.686-1.032 5.509-5.083 5.431a821.072 821.072 0 0 0-27.646-.013C1.624 38.547.398 37.047.45 33.53.59 24.142.63 14.754.437 5.366.359 1.383 2.023.168 5.79.22c9.005.142 18.01.155 27.001 0C36.7.155 38.158 1.758 37.99 5.56c-.18 4.461-.039 8.948-.039 13.436zM41.692 18.996c0-18.491 0-18.491 18.422-18.491 18.68 0 18.68 0 18.68 18.297 0 4.694-.116 9.4.013 14.095.103 3.75-1.38 5.43-5.29 5.366-8.798-.142-17.596-.18-26.394.013-4.347.103-5.624-1.875-5.457-5.819.168-4.487.026-8.974.026-13.461zM60.656 42.35c3.87-.014 7.74.193 11.597-.066 4.554-.297 6.708 1.164 6.554 6.09-.271 8.548-.155 17.096-.065 25.643.039 3.802-1.522 5.367-5.392 5.302a748.92 748.92 0 0 0-26.407 0c-3.974.065-5.25-1.72-5.2-5.431.13-8.767.143-17.535 0-26.289-.064-3.853 1.562-5.405 5.38-5.289 4.515.155 9.018.04 13.533.04zM19.516 42.479c3.638 0 7.302.232 10.914-.052 5.121-.414 7.43 1.241 7.173 6.763-.375 8.082-.207 16.203-.065 24.297.078 4.048-1.458 5.82-5.637 5.742-8.566-.168-17.132-.143-25.698 0-3.728.051-5.47-1.203-5.392-5.173.18-8.741.154-17.482 0-26.224-.065-3.776 1.29-5.496 5.211-5.353 4.49.168 8.992.038 13.494.038v-.038zM127.751 50.263c4.374-10.617 8.45-19.552 11.701-28.798 2.013-5.741 6.27-5.625 10.256-4.46 1.625.478 3.057 4.422 3.122 6.84.322 11.534.129 23.082.142 34.629 0 2.741-.194 5.793-3.896 4.81-1.729-.465-3.999-3.038-4.077-4.732-.413-8.923-.193-17.884-1.664-27.285-3.019 7.552-5.779 15.22-9.172 22.59-1.625 3.53-1.2 10.151-6.773 9.182-2.786-.492-5.199-5.82-6.876-9.388-3.263-6.918-5.882-14.134-8.772-21.22l-1.664.155v21.776c0 1.927.413 4.021-.219 5.715-.529 1.397-2.516 3.401-3.509 3.22-1.561-.284-4.025-2.146-4.051-3.375a886.791 886.791 0 0 1 .026-39.75c.026-1.215 2.58-3.194 4.128-3.362 3.406-.388 7.301-1.319 9.082 3.582 2.915 8.043 6.244 15.931 9.417 23.87.645 1.54 1.419 3.027 2.799 6zM347.78 19.9c-5.934-.193-9.624 1.863-7.392 9.247 4.283-.246 10.05 3.918 11.133-5.121.194-1.578 3.935-2.729 6.825-4.565.593 3.996.967 6.466 1.406 9.388 1.535.323 3.328.323 4.696 1.1 1.019.581 1.909 2.094 2.025 3.284.09.905-1.097 2.806-1.729 2.806-6.45 0-5.56 4.5-5.534 8.508.013 1.707.077 3.427-.013 5.134-.258 4.953.942 8.65 7.663 7.785.206.517.4 1.034.606 1.551-1.419 1.707-2.593 4.54-4.309 4.914-4.992 1.086-9.984-.168-11.262-5.767-1.083-4.707-.838-9.75-.774-14.651.052-4.319-.232-7.345-6.024-7.241-5.56.103-5.586 3.206-5.509 7.112.104 4.913-.025 9.827.026 14.754.039 3.052-.219 5.496-4.36 5.38-4.09-.117-4.309-2.639-4.296-5.626.026-4.28.116-8.56-.039-12.827-.129-3.582 1.406-7.927-4.089-9.492-.49-.142-.336-5.133.026-5.198 4.515-.84 3.934-4.396 4.502-7.422 1.096-5.768 4.799-8.949 10.475-9.79 4.812-.684 7.611.816 5.947 6.738zM243.248 64.28c-10.488-.013-17.131-6.75-17.131-17.366 0-11.07 6.992-17.936 18.163-17.82 10.721.104 16.823 6.53 16.694 17.561-.129 10.836-6.967 17.638-17.726 17.625zm9.018-17.922c-.091-6.699-3.187-10.423-8.669-10.384-5.612.026-8.786 4.073-8.682 11.069.09 6.465 3.405 10.448 8.72 10.474 5.548.013 8.734-4.099 8.631-11.16zM307.196 64.28c-10.591-.09-16.951-6.698-16.887-17.522.078-11.237 6.863-17.831 18.229-17.676 10.32.142 16.602 6.595 16.641 17.095.052 11.069-7.043 18.206-17.983 18.103zm9.262-17.431c.091-6.634-2.954-10.63-8.256-10.862-5.611-.259-9.365 3.957-9.417 10.539-.039 6.491 3.715 11.017 9.121 10.991 5.25-.026 8.475-4.047 8.552-10.668zM265.398 55.785c2.632.646 5.109 1.732 7.573 1.706 1.793-.013 3.56-1.5 5.34-2.34-1.006-1.448-1.831-3.065-3.07-4.28-.864-.854-2.258-1.177-3.431-1.681-5.07-2.173-8.141-5.742-7.057-11.47 1.135-6.026 5.715-8.12 11.288-8.547 7.766-.595 9.507.943 8.372 7.538-2.051-.297-4.154-.97-6.166-.776-1.677.168-3.251 1.358-4.877 2.095.929 1.487 1.561 3.323 2.852 4.37 1.612 1.307 4.334 1.514 5.56 3.014 2.141 2.625 5.082 6.039 4.773 8.819-.336 3.116-3.341 6.776-6.218 8.547-2.593 1.604-6.592 1.384-9.947 1.229-5.198-.22-7.121-3.04-4.992-8.224zM199.568 37.513c-5.522-1.707-11.804-3.543-14.888 2.599-1.806 3.595-1.96 9.427-.258 13.022 3.148 6.633 9.689 4.176 15.236 2.599 2.128 5.69-.645 7.784-5.496 8.353-7.288.854-13.687-.672-17.867-7.293-3.793-6.026-3.238-15.388 1.084-21.142 4.038-5.38 12.178-8.302 19.028-5.923 2.116.737 3.38 3.88 5.031 5.91l-1.87 1.875zM225.807 36.453c-9.985 1.099-11.288 2.586-11.365 12.232-.026 3.621.4 7.32-.258 10.81-.297 1.553-2.619 3.389-4.322 3.764-.967.207-3.586-2.25-3.638-3.57a340.584 340.584 0 0 1 .026-26.159c.052-1.319 2.503-3.672 3.767-3.62 5.276.194 10.527 1.073 15.739 1.978.258.052.051 2.741.051 4.565zM160.428 63.35c0-10.643-.142-20.367.181-30.091.038-1.216 2.618-3.31 3.947-3.246 1.355.052 3.69 2.224 3.741 3.543.349 8.69.362 17.392.142 26.095-.155 6.233-4.463 2.922-8.011 3.698zM164.375 26.418c-2.077-2.78-4.593-4.797-4.257-6 .529-1.875 3.019-3.206 4.683-4.771 1.522 1.68 3.896 3.207 4.27 5.12.232 1.242-2.425 3.052-4.696 5.651z" fill="#fff"/></svg>