<svg width="301" height="81" viewBox="0 0 301 81" fill="none" xmlns="http://www.w3.org/2000/svg"><path d="M133.243 21.672c3.367-1.46 5.431-2.47 7.572-3.271 10.772-4.086 21.144.453 23.53 11.625 1.407 6.608 1.226 14.082-.348 20.664-2.154 9.051-10.165 13.888-19.376 13.707-6.928-.13-13.855-.582-20.783-.647-3.728-.039-5.418-1.332-5.392-5.263.116-17.289.206-34.565-.039-51.853-.09-6.013 3.599-5.587 7.598-5.703 4.348-.13 7.689.323 7.315 6.013-.322 4.565-.077 9.168-.077 14.729zm.012 19.591c0 1.914-.025 3.815 0 5.728.117 6.414 1.819 7.888 8.128 6.996 5.044-.711 8.282-3.62 8.953-8.56.761-5.638 1.973-12.078-3.767-15.66-2.555-1.59-7.057-1.228-10.217-.245-1.574.491-2.335 4.267-3.019 6.685-.439 1.565-.078 3.362-.078 5.056zM250.792 40.138c.283-14.922 9.61-23.496 25.349-23.302 15.339.194 25.323 10.19 24.846 24.918-.451 14.367-10.707 23.625-25.827 23.34-15.79-.284-24.665-9.374-24.368-24.956zm34.882 1.06c-.322-2.03-.567-4.15-1.006-6.233-1.071-5.017-4.089-7.965-9.378-7.862-5.057.091-8.025 3.181-8.695 7.85-.568 3.944-.555 8.081-.026 12.025.632 4.746 3.767 7.707 8.708 7.85 5.263.155 8.295-2.884 9.456-7.837.425-1.875.619-3.788.941-5.793zM50.487 18.88c-.839 2.456-1.42 4.46-2.193 6.374C42.1 40.487 35.87 55.707 29.64 70.927c-4.348 10.63-6.567 11.65-18.719 8.534.13-.763.013-1.72.413-2.327 6.515-9.892 4.696-19.397-.193-29.444C6.767 38.716 3.71 29.12.072 19.823c10.101-4.099 14.423-2.353 17.893 6.867 2.296 6.129 4.618 12.245 8.372 18.427 2-5.47 4.038-10.914 5.999-16.397 4.14-11.677 4.115-11.677 18.15-9.84zM89.24 60.698c-4.76 1.474-8.927 3.44-13.262 3.957-9.766 1.177-16.383-4.358-16.848-14.069-.439-9.168.013-18.362-.22-27.543-.128-5.457 3.51-4.888 6.941-4.85 3.548.04 7.611-.879 7.495 5.005-.142 7.048.039 14.095.258 21.13.168 5.43 2.361 9.012 8.63 8.599 5.793-.388 8.322-3.013 7.896-9.065-.465-6.595.206-13.254-.194-19.85-.36-5.909 3.122-5.831 7.315-5.909 4.451-.077 7.405.505 7.25 6.104-.297 10.668.064 21.362-.194 32.03-.064 2.405-1.496 6.763-2.451 6.802-3.934.155-7.92-.957-11.868-1.694-.49-.078-.852-.75-.748-.647zM243.322 49.034c2.477 11.871.684 14.483-10.127 15.375-3.405.285-6.888.233-10.294-.103-12.733-1.254-20.396-9.026-21.002-21.013-.709-14.004 5.38-22.72 18.357-25.228 4.735-.919 9.869-1.009 14.629-.285 10.14 1.539 11.301 3.983 8.256 14.961-7.74-3.763-15.712-9.737-23.53-.724-3.754 4.32-3.805 14.173.013 18.09 7.74 7.94 15.623 3.608 23.698-1.073zM191.36 41.03c.012 5.974-.091 11.948.038 17.923.103 5.43-3.767 4.823-7.121 4.72-3.354-.117-7.83 1.319-7.817-4.669.038-12.155.025-24.323.012-36.478 0-5.664 4.296-4.267 7.405-4.267s7.444-1.436 7.47 4.215c.025 6.181.013 12.362.013 18.556zM184.187 11.69c-4.141-.13-7.985.905-8.076-5.043-.116-6.686 4.283-5.548 8.231-5.677 4.115-.142 7.585-.142 7.443 5.806-.167 6.698-4.902 4.28-7.598 4.914z" fill="#fff"/></svg>