<svg width="29" height="53" viewBox="0 0 29 53" fill="none" xmlns="http://www.w3.org/2000/svg">
<path d="M0.318598 52.432C-0.388158 47.5779 -0.191837 43.7185 3.77385 41.0448C4.22146 40.7424 4.60625 40.0103 4.64552 39.4453C5.22663 31.2093 5.93338 22.9732 6.15326 14.7213C6.20823 12.6444 4.27643 10.5834 3.90735 8.41099C3.4833 5.94416 3.79741 3.34206 3.78956 0.803609C5.88627 1.01846 7.98298 1.23331 11.0063 1.5357C13.4878 -0.835639 15.5374 -0.437763 18.2231 2.57018C18.6707 2.21209 19.0712 1.69485 19.5973 1.51183C20.9402 1.05029 22.393 0.342073 23.6887 0.533054C24.309 0.620586 25.165 2.57814 25.0472 3.58874C24.8038 5.64974 23.8928 7.6232 23.3981 9.66032C22.9112 11.6656 22.1966 13.7346 22.283 15.7399C22.6128 23.0687 23.1547 30.3976 23.8379 37.7106C23.9635 39.0474 25.0708 40.2968 25.7775 41.554C26.6021 43.0262 27.7329 44.371 28.2983 45.9307C29.9867 50.6017 28.6752 52.416 23.8536 52.424C16.1107 52.4399 8.37562 52.432 0.318598 52.432ZM21.9061 40.9493C21.4506 34.6708 21.1522 28.7822 20.5711 22.9335C19.6366 13.5913 19.5502 13.5993 10.1347 14.3712C9.76557 14.403 9.40434 14.5781 8.51697 14.8407C7.92016 23.3552 7.30763 32.0209 6.68726 40.9493C11.8858 40.9493 16.6054 40.9493 21.9061 40.9493ZM14.2731 1.55957C10.9828 4.74258 10.2132 4.75849 5.54074 2.07681C4.04085 6.26246 4.47275 7.10596 8.3285 7.16962C12.1843 7.23328 16.04 7.23328 19.8957 7.16962C23.9714 7.10596 24.6075 5.84867 22.4715 1.76647C19.7937 4.76645 17.0059 5.22003 14.2731 1.55957ZM2.02267 48.5009C5.36013 51.1269 24.6467 50.7529 26.6963 48.5009C18.2467 48.5009 10.1347 48.5009 2.02267 48.5009ZM25.5027 45.5965C24.1284 43.5275 12.9931 42.4612 5.23448 43.5753C4.45705 43.6867 3.78956 44.5063 2.20328 45.5965C10.7786 45.5965 18.0739 45.5965 25.5027 45.5965ZM6.31032 8.98393C9.59281 14.0847 13.9354 11.3871 17.3593 12.0476C19.3068 12.4216 21.3799 12.2067 21.1758 8.98393C16.5897 8.98393 12.0272 8.98393 6.31032 8.98393Z" fill="white"/>
</svg>
