<svg width="51" height="50" viewBox="0 0 51 50" fill="none" xmlns="http://www.w3.org/2000/svg">
<path d="M13.9738 25.7956C9.69086 19.6667 6.09914 14.7678 2.79883 9.67645C1.6671 7.93811 1.03008 5.76004 0.609914 3.6919C0.162644 1.49321 1.53156 0.31829 3.65949 0.187743C7.00724 -0.00464167 17.1183 6.53645 19.0226 10.659C13.0183 8.27479 9.23681 2.66814 3.01569 2.31772C2.14148 6.33719 9.41979 18.1414 15.8442 23.164C17.1454 21.9547 18.4872 20.7042 20.3169 18.9934C17.7688 18.6361 15.9052 18.375 14.0348 18.1139C14.0551 17.7154 14.0755 17.3169 14.089 16.9184C16.9556 17.0695 19.8358 17.1589 22.6888 17.4337C23.0683 17.468 23.6647 18.4437 23.6511 18.9659C23.5834 21.6043 23.3462 24.2427 23.17 26.8743C22.7905 26.8812 22.4177 26.8949 22.0382 26.9018C21.8824 25.0329 21.7265 23.164 21.5096 20.6424C19.707 22.0922 18.2974 23.2327 15.851 25.1978C18.6702 27.6507 21.1301 29.8906 23.7324 31.9519C24.2272 32.3435 25.5351 32.3367 26.0298 31.945C28.483 30.028 30.7871 27.9118 33.3894 25.6581C31.8443 23.9679 30.5906 22.5937 28.9845 20.8417C28.666 23.3976 28.4085 25.4658 28.0832 28.0698C26.5245 26.0086 26.1247 19.1445 27.2428 18.004C27.7647 17.4749 28.8151 17.2688 29.6215 17.2825C32.0951 17.3375 34.555 17.5711 37.0286 17.7291C37.0354 18.2032 37.0421 18.6773 37.0489 19.1514C35.1311 19.282 33.2132 19.4125 30.699 19.5843C32.1628 21.2264 33.3826 22.6006 34.8126 24.2084C40.5119 19.282 45.3641 13.9295 48.9626 7.4915C49.376 6.74945 49.5183 5.22411 49.0846 4.7775C48.5627 4.24844 47.1193 4.13164 46.3467 4.47518C42.9719 5.95242 39.6919 7.64266 36.3983 9.28481C35.3683 9.80012 34.3788 10.3979 33.3759 10.9613C33.1658 10.6659 32.9625 10.3704 32.7524 10.0818C33.6063 9.40848 34.3924 8.59772 35.3344 8.0824C38.6686 6.26161 41.9553 4.26905 45.4725 2.92236C46.9295 2.36582 49.4776 2.70249 50.5212 3.70564C51.3006 4.45457 51.0702 7.34034 50.2502 8.56336C47.5056 12.6653 44.334 16.4786 41.2438 20.3263C39.78 22.154 38.1196 23.8167 36.439 25.665C39.0413 29.0661 41.6233 32.1786 43.8935 35.5041C45.6555 38.0945 47.2887 40.8566 48.4611 43.7561C49.0507 45.2058 49.1184 47.7412 48.2578 48.6688C47.4242 49.562 44.7406 49.6582 43.4801 48.9642C39.0887 46.5457 34.9074 43.7286 30.7736 40.8703C28.666 39.4137 26.843 37.5379 24.7083 35.7034C21.1301 38.0395 17.6672 40.4855 14.028 42.6293C11.2428 44.2714 8.3355 45.8173 5.2927 46.8549C3.74081 47.3908 1.77553 46.7106 0 46.5732C0.155867 44.7455 -0.29818 42.4918 0.589584 41.1589C3.43585 36.8646 6.68873 32.8314 9.98904 28.86C11.1004 27.5202 12.8082 26.675 13.9738 25.7956ZM14.7328 25.8505C10.477 31.0449 6.36344 35.9026 2.4871 40.9528C1.64677 42.0521 1.67388 43.8317 1.30115 45.2952C2.8666 45.199 4.66923 45.5837 5.94328 44.9241C10.4905 42.5674 14.8955 39.9153 19.2801 37.2562C20.6422 36.4317 21.7807 35.2293 22.7769 34.4048C20.1204 31.574 17.7485 29.0524 14.7328 25.8505ZM46.8346 48.0504C47.1057 42.7392 39.6309 31.0174 34.2636 27.4583C31.7155 29.6433 29.1268 31.8763 26.1111 34.4666C32.7253 39.7229 38.4178 45.5219 46.8346 48.0504Z" fill="white"/>
</svg>
