<svg width="53" height="51" viewBox="0 0 53 51" fill="none" xmlns="http://www.w3.org/2000/svg">
<g clip-path="url(#clip0)">
<path d="M4.44134 8.43863C5.53219 10.1417 6.33475 11.3921 7.13731 12.6426C6.70876 13.0108 6.28021 13.3714 5.85166 13.7396C3.74787 11.4919 0.00778911 9.2518 -2.71185e-06 6.99639C-0.00779454 4.67193 3.61541 2.33213 5.65686 0C6.11658 0.368231 6.56851 0.736462 7.02822 1.09702C6.08541 2.50857 5.1426 3.92013 3.87253 5.81498C12.2332 5.81498 20.2432 5.83032 28.2532 5.80731C35.0866 5.7843 41.0941 7.75587 46.0497 12.5582C53.413 19.708 55.1427 30.7166 50.2027 39.324C44.9277 48.4991 34.1516 52.9409 23.8664 50.1791C12.8643 47.2256 6.51396 38.5645 7.18406 27.3642C7.2464 26.3822 7.6282 25.4156 7.86195 24.449C8.26713 24.4643 8.68009 24.4797 9.08527 24.495C9.30344 25.8452 9.66186 27.1954 9.70861 28.5532C10.106 40.4901 17.4459 48.0158 29.196 48.4531C40.4707 48.875 49.2521 41.2726 50.5534 29.9571C51.7143 19.8845 43.1667 9.42058 32.0945 8.57671C23.0716 7.88628 13.9474 8.43863 4.44134 8.43863Z" fill="white"/>
</g>
<defs>
<clipPath id="clip0">
<rect width="53" height="51" fill="white"/>
</clipPath>
</defs>
</svg>
