<svg width="63" height="35" viewBox="0 0 63 35" fill="none" xmlns="http://www.w3.org/2000/svg">
<g clip-path="url(#clip0)">
<path d="M31.43 0.433594C43.07 0.593594 52.95 5.23359 60.89 14.4536C63.04 16.9536 62.69 18.4336 60.75 20.7236C44.91 39.4036 17.22 39.3436 1.52002 20.6236C-0.519976 18.1936 -0.499976 16.5236 1.57002 14.2636C9.54002 5.54359 19.17 0.563594 31.43 0.433594ZM59.48 17.3836C45.66 -1.79641 15.86 -1.68641 3.05002 17.6036C16.09 36.7236 47.41 36.5936 59.48 17.3836Z" fill="white"/>
<path d="M43.34 17.3736C43.44 24.5436 38.53 29.7936 31.58 29.9536C24.34 30.1236 19.1 24.9336 19.1 17.6036C19.1 10.7236 24.43 5.16359 31.1 5.08359C37.75 5.01359 43.25 10.5336 43.34 17.3736ZM41.23 17.6736C41.26 12.0036 36.99 7.60359 31.38 7.53359C25.75 7.45359 21.33 11.7236 21.2 17.3636C21.07 23.2036 25.57 27.8636 31.31 27.8136C36.85 27.7636 41.2 23.3136 41.23 17.6736Z" fill="white"/>
</g>
<defs>
<clipPath id="clip0">
<rect width="62.35" height="34.27" fill="white" transform="translate(0 0.433594)"/>
</clipPath>
</defs>
</svg>
