<svg width="56" height="54" viewBox="0 0 56 54" fill="none" xmlns="http://www.w3.org/2000/svg">
<path d="M56 53.595C36.9153 53.595 18.5974 53.595 0 53.595C0 51.4621 0 49.5608 0 47.4119C18.4776 47.4119 36.6676 47.4119 55.5926 47.4119C55.7124 49.2732 55.8482 51.2224 56 53.595ZM53.5954 51.9654C54.0987 48.8738 52.3892 49.1853 51.0151 49.1853C35.5173 49.1694 20.0114 49.1773 4.51355 49.1853C3.98631 49.1853 3.37118 49.0735 2.96377 49.3052C2.49244 49.5768 1.90927 50.1839 1.93324 50.6233C1.94922 51.0627 2.59629 51.7417 3.06762 51.8375C4.08217 52.0452 5.15264 51.9654 6.20713 51.9654C19.3404 51.9733 32.4816 51.9654 45.6148 51.9654C48.2191 51.9654 50.8234 51.9654 53.5954 51.9654Z" fill="white"/>
<path d="M51.3662 12.062C35.373 12.062 20.1388 12.062 4.90453 12.062C4.7847 11.8623 4.66487 11.6626 4.54504 11.4629C5.25603 10.8877 5.88713 10.1528 6.68599 9.7693C12.989 6.78157 19.3 3.78585 25.6828 0.973863C26.8652 0.454605 28.6147 0.206958 29.7171 0.702251C36.5553 3.78585 43.2897 7.1091 50.048 10.3844C50.3516 10.5282 50.5194 10.9596 51.3662 12.062ZM11.8706 9.71338C11.9025 9.86516 11.9345 10.0169 11.9585 10.1687C22.5593 10.1687 33.1602 10.1687 43.761 10.1687C39.0637 7.40468 34.2626 5.03207 29.3896 2.82722C28.5667 2.45175 27.2886 2.52365 26.4418 2.89911C21.5448 5.08799 16.7197 7.42864 11.8706 9.71338Z" fill="white"/>
<path d="M4.72919 44.3044C7.41335 42.2034 48.0992 42.1555 51.095 44.1446C46.158 45.3589 41.0773 44.7917 36.0604 44.8955C30.6921 44.9994 25.3158 44.9435 19.9395 44.9115C14.8587 44.8716 9.75401 45.0553 4.72919 44.3044Z" fill="white"/>
<path d="M43.3069 15.8086C45.1203 15.8086 46.6301 15.8086 48.795 15.8086C48.795 19.707 48.795 23.3898 48.795 27.0645C48.795 29.9883 48.819 32.9122 48.7871 35.828C48.7391 40.3096 48.2598 40.6531 43.3069 39.5746C43.3069 31.8657 43.3069 24.0928 43.3069 15.8086ZM46.694 16.5595C44.2575 18.9321 43.6983 25.1632 44.4812 35.7002C44.5611 36.7387 45.1922 37.7373 45.5677 38.7518C45.9431 38.6639 46.3186 38.5761 46.694 38.4882C46.694 31.4263 46.694 24.3564 46.694 16.5595Z" fill="white"/>
<path d="M25.0683 27.5683C25.0603 24.5166 25.0922 21.473 25.0523 18.4213C25.0283 16.4881 25.7233 15.5215 27.8163 15.5215C29.8694 15.5215 30.6363 16.4002 30.6283 18.3734C30.5964 24.7403 30.5964 31.0992 30.6203 37.4661C30.6283 39.5352 29.6058 40.2142 27.6725 40.1902C25.8192 40.1583 25.0683 39.2875 25.0763 37.5141C25.0842 34.1988 25.0763 30.8835 25.0683 27.5683ZM27.2571 38.7363C27.7764 38.6484 28.3036 38.5606 28.8229 38.4727C29.0146 32.3135 29.2783 26.1623 29.3422 20.0031C29.3502 19.0445 28.4794 18.0698 28.0161 17.1032C27.4329 18.0858 26.3864 19.0524 26.3544 20.051C26.1867 25.2037 26.2186 30.3723 26.3225 35.5249C26.3385 36.6114 26.9296 37.6738 27.2571 38.7363Z" fill="white"/>
<path d="M7.66089 15.7686C8.95504 15.6967 9.85775 15.5928 10.7684 15.6088C11.2637 15.6168 11.751 15.8245 12.462 15.9923C12.462 23.8371 12.462 31.602 12.462 39.8542C10.9522 39.9341 9.49028 40.014 7.66089 40.1098C7.66089 31.8816 7.66089 24.0288 7.66089 15.7686ZM9.02694 16.5994C9.02694 24.3404 9.02694 31.3943 9.02694 38.4482C9.30654 38.584 9.58614 38.7278 9.85775 38.8636C10.3451 38.1926 11.1279 37.5854 11.2797 36.8425C12.3981 31.4023 11.3117 18.5486 9.02694 16.5994Z" fill="white"/>
<path d="M16.3922 39.7265C16.3922 31.7459 16.3922 23.997 16.3922 15.9045C18.0059 15.9045 19.4678 15.9045 21.5209 15.9045C21.5209 20.3382 21.5209 24.668 21.5209 28.9898C21.5209 31.3704 21.5449 33.751 21.5129 36.1396C21.465 40.3496 21.3611 40.4135 16.3922 39.7265ZM19.8513 16.5356C17.4627 18.9003 16.7277 27.4321 17.6464 36.1157C17.7423 37.0344 18.3814 37.8891 18.7728 38.7759C19.1323 38.68 19.4998 38.5841 19.8593 38.4883C19.8513 31.4184 19.8513 24.3565 19.8513 16.5356Z" fill="white"/>
<path d="M34.5026 15.793C36.1643 15.793 37.5463 15.793 39.2479 15.793C39.2479 23.7656 39.2479 31.6423 39.2479 39.4791C34.6624 40.7094 34.1991 40.4298 34.1671 36.1559C34.1272 30.5878 34.1432 25.0198 34.1751 19.4517C34.1831 18.2934 34.3748 17.1351 34.5026 15.793ZM36.0125 16.6318C36.0125 24.3567 36.0125 31.4346 36.0125 38.5205C36.3959 38.6004 36.7794 38.6803 37.1628 38.7602C37.5143 37.7456 38.1215 36.739 38.1854 35.7085C38.8884 24.3168 38.3931 18.8047 36.0125 16.6318Z" fill="white"/>
</svg>
