<svg width="76" height="35" viewBox="0 0 76 35" fill="none" xmlns="http://www.w3.org/2000/svg">
<path d="M44.46 11.4036C47.45 3.07359 54.82 -0.506408 62.85 1.06359C69.55 2.37359 74.76 8.31359 75.23 15.1736C75.78 23.2336 71.84 29.7336 64.59 32.0636C57.94 34.2036 52 32.8236 46.95 27.7736C40.1 20.9236 33.3 14.0036 26.16 7.44359C18.64 0.533592 8.69 2.26359 4.17 10.8936C1.09 16.7636 3.25 24.4536 9.03 28.1836C15.17 32.1436 21.71 31.0636 26.49 25.1436C24.26 24.8636 22.15 24.5936 19.28 24.2336C22.86 21.8636 31.33 21.2836 31.71 23.0836C32.49 26.7636 32.24 30.6636 32.41 34.4736C31.72 34.5136 31.03 34.5536 30.34 34.5836C29.95 32.5036 29.56 30.4236 29.27 28.8936C25.23 30.2336 21.21 32.3236 17.02 32.7636C9.63 33.5436 3.26 28.9236 0.990003 22.2836C-1.48 15.0436 0.960004 7.82359 7.43 3.27359C12.88 -0.566408 21.4 -0.406408 26.69 4.36359C33.64 10.6236 40.13 17.3936 46.87 23.8936C48.52 25.4836 50.23 27.0736 52.14 28.3036C57.95 32.0536 65.01 30.8836 69.47 25.6236C73.98 20.2936 73.98 13.4736 69.47 8.09359C65.04 2.81359 57.96 1.59359 52.17 5.35359C49.44 7.13359 47.02 9.37359 44.46 11.4036Z" fill="white"/>
</svg>
