<svg width="242" height="80" viewBox="0 0 242 80" fill="none" xmlns="http://www.w3.org/2000/svg">
<path d="M50.9568 7.91371C48.5057 12.9956 46.016 13.6809 41.5008 11.0947C32.0448 5.68957 21.0407 7.9525 14.1132 15.9309C7.37921 23.6766 6.88899 35.4439 12.9264 43.9008C18.8348 52.1766 30.2774 55.3835 40.0173 51.2456C46.1063 48.6594 50.1957 44.3792 50.6601 35.9482C45.7708 35.9482 41.1525 36.2973 36.6374 35.7801C34.7023 35.5603 31.7481 33.8016 31.3998 32.2499C30.471 28.1637 33.9541 28.1896 36.818 28.1766C42.4038 28.1508 47.9897 28.3447 53.5627 28.1249C58.2327 27.9439 59.3421 30.2197 59.3421 34.3965C59.3421 53.8447 39.7722 66.3232 20.1248 59.0818C8.64345 54.8534 1.85783 46.3835 0.296882 34.3835C-1.35437 21.7111 3.81869 11.6378 14.5131 4.90077C25.0141 -1.71991 36.0697 -1.44836 46.8803 4.64215C48.3251 5.44388 49.4991 6.72405 50.9568 7.91371Z" fill="white"/>
<path d="M151.709 67.7327C154.818 65.2112 157.424 64.0862 160.804 68.0043C164.248 71.9741 169.125 72.4784 173.717 69.9052C178.065 67.4741 179.381 63.4526 178.607 58.7586C174.117 59.5862 170.118 61.2155 166.312 60.8534C158.417 60.1034 152.793 55.4741 150.38 47.8707C147.929 40.1379 149.477 32.9483 155.476 27.2974C161.075 22.0215 167.628 20.3793 174.994 23.7543C176.078 24.2586 177.433 24.737 178.542 24.556C186.747 23.2241 186.76 23.1595 186.76 31.5129C186.76 41.5345 187.018 51.5819 186.566 61.5776C186.14 71.0431 180.361 77.1853 171.356 78.8793C163.461 80.3664 155.437 75.8793 151.709 67.7327ZM179.393 41.9353C179.522 35.0301 175.188 29.7801 169.163 29.5345C162.945 29.2758 157.721 34.7327 157.643 41.5603C157.579 48.0258 162.429 53.4698 168.428 53.6638C174.465 53.8448 179.264 48.7112 179.393 41.9353Z" fill="white"/>
<path d="M82.4728 21.6855C93.9025 21.776 102.404 30.2588 102.378 41.5217C102.339 52.7976 93.7477 61.4485 82.5244 61.5131C71.172 61.5907 61.9869 52.4485 62.1546 41.2372C62.3094 30.1812 71.2365 21.595 82.4728 21.6855ZM93.064 41.5088C93.064 34.8235 88.3166 29.7545 82.1631 29.8838C76.2806 30.0002 71.5848 34.9528 71.4429 41.1985C71.2881 47.845 75.8935 52.914 82.1631 53.0174C88.5617 53.095 93.064 48.3622 93.064 41.5088Z" fill="white"/>
<path d="M241.186 52.9008C234.194 61.2284 225.486 63.5689 216.83 59.806C208.612 56.2241 204.033 47.4956 205.529 38.2111C207 29.056 213.386 22.6163 221.848 21.7629C230.866 20.8577 237.432 25.4999 241.895 36.6206C233.471 40.2154 224.983 43.8491 216.391 47.5215C220.403 53.3663 226.286 55.1249 230.93 51.1939C235.484 47.3275 237.922 49.3448 241.186 52.9008ZM231.008 33.5042C223.37 27.1163 216.495 30.0129 214.534 40.3706C220.158 38.0301 225.125 35.9611 231.008 33.5042Z" fill="white"/>
<path d="M145.324 41.4051C145.427 52.3189 136.925 60.9956 125.947 61.1895C114.84 61.3835 105.771 52.4352 105.848 41.3663C105.926 30.5559 114.711 21.9439 125.651 21.9956C136.809 22.0344 145.22 30.349 145.324 41.4051ZM136.784 41.4956C136.784 34.8878 132.036 29.6766 125.921 29.5602C119.549 29.4439 114.401 34.8232 114.414 41.5861C114.427 48.1163 119.226 53.3663 125.328 53.5473C131.662 53.7154 136.784 48.3361 136.784 41.4956Z" fill="white"/>
<path d="M201.775 31.4094C201.775 39.2974 201.737 47.1853 201.801 55.0732C201.827 58.3448 200.756 60.9956 197.105 59.9482C195.39 59.4568 193.119 56.8577 193.08 55.1767C192.784 38.9741 192.771 22.7586 193.093 6.56891C193.119 4.95254 195.815 3.38788 197.273 1.79736C198.77 3.34909 201.479 4.83616 201.569 6.46547C202.008 14.7543 201.762 23.0818 201.775 31.4094Z" fill="white"/>
</svg>
