<svg width="182" height="24" viewBox="0 0 182 24" fill="none" xmlns="http://www.w3.org/2000/svg">
<path d="M9.99057 23.3613V21.9675C9.45828 22.5076 8.80368 22.9276 8.07547 23.1962C7.34727 23.4648 6.56421 23.5751 5.78456 23.5188C4.99181 23.5743 4.19538 23.4766 3.4441 23.2316C2.69282 22.9866 2.00253 22.5994 1.41556 22.0938C0.46565 21.103 -0.0407239 19.8039 0.00256325 18.4688C0.00256325 15.8971 1.87556 13.7903 5.85057 13.7903H9.89157V12.984C9.89157 11.2187 8.97157 10.4435 6.70456 10.4435C6.082 10.3835 5.45349 10.4743 4.87861 10.7075C4.30372 10.9407 3.80151 11.3085 3.41956 11.776L0.692563 9.26469C2.36356 7.52949 4.01056 7.03345 6.86857 7.03345C11.6686 7.03345 14.1626 8.95443 14.1626 12.7341V23.3613H9.99057ZM9.89057 16.545H6.50757C4.96356 16.545 4.10756 17.2268 4.10756 18.3726C4.10756 19.4882 4.89557 20.2323 6.57157 20.2323C7.0533 20.293 7.54324 20.2551 8.00809 20.1214C8.47295 19.9876 8.90182 19.7611 9.26557 19.4571C9.51346 19.1753 9.69686 18.8482 9.80425 18.4964C9.91164 18.1445 9.94068 17.7755 9.88957 17.4126L9.89057 16.545Z" fill="#363A3F"/>
<path d="M27.9966 23.3613V21.8751C27.4423 22.4126 26.7778 22.8381 26.0435 23.1258C25.3093 23.4134 24.5206 23.557 23.7256 23.548C22.9853 23.5764 22.2465 23.465 21.5525 23.2203C20.8586 22.9756 20.2235 22.6026 19.6846 22.1231C19.0693 21.5167 18.5962 20.795 18.2961 20.0049C17.996 19.2148 17.8755 18.3739 17.9426 17.5371V7.21924H22.2136V16.9788C22.2136 19.1789 23.6926 19.922 25.0386 19.922C25.441 19.9365 25.8419 19.8683 26.2135 19.7219C26.5851 19.5756 26.9185 19.3547 27.1904 19.0746C27.4624 18.7946 27.6664 18.462 27.7884 18.1001C27.9103 17.7382 27.9472 17.3555 27.8966 16.9788V7.21924H32.1676V23.3613H27.9966Z" fill="#363A3F"/>
<path d="M41.6977 23.3618C41.0395 23.4056 40.3789 23.3166 39.7601 23.1006C39.1412 22.8847 38.5783 22.5468 38.1088 22.1096C37.6394 21.6723 37.2742 21.1456 37.0376 20.5647C36.8009 19.9839 36.6984 19.3621 36.7367 18.7409V10.7514H34.9297V7.68369H36.7367V2.91284H41.0077V7.68369H44.0307V10.7514H41.0077V18.5013C41.0077 19.4312 41.4677 19.9574 42.4867 19.9574H44.0307V23.3655L41.6977 23.3618Z" fill="#363A3F"/>
<path d="M57.1075 23.3621V13.5064C57.1401 13.1439 57.0926 12.779 56.9679 12.4348C56.8432 12.0905 56.6441 11.7745 56.3831 11.5066C56.1222 11.2387 55.8051 11.0248 55.4519 10.8785C55.0987 10.7322 54.7172 10.6567 54.3315 10.6567C53.9457 10.6567 53.5642 10.7322 53.211 10.8785C52.8578 11.0248 52.5407 11.2387 52.2798 11.5066C52.0188 11.7745 51.8197 12.0905 51.695 12.4348C51.5703 12.779 51.5228 13.1439 51.5555 13.5064V23.3621H47.2834V1.30249H51.5535V8.70726C52.0814 8.17964 52.7179 7.75914 53.4241 7.47149C54.1302 7.18384 54.8912 7.03507 55.6605 7.0343C59.4055 7.0343 61.3774 9.51261 61.3774 12.9217V23.3621H57.1075Z" fill="#363A3F"/>
<path d="M68.7056 16.545C68.6651 17.0213 68.7336 17.5003 68.9065 17.9495C69.0795 18.3987 69.3528 18.8075 69.7079 19.1484C70.0631 19.4892 70.4918 19.7541 70.965 19.925C71.4383 20.0959 71.9449 20.1688 72.4506 20.1389C73.1771 20.1837 73.9048 20.0701 74.5772 19.8068C75.2495 19.5435 75.8485 19.1376 76.3276 18.6206L78.9276 21.0065C78.1136 21.8616 77.1068 22.5336 75.981 22.9733C74.8553 23.413 73.6393 23.609 72.4226 23.5471C68.3816 23.5471 64.5046 21.8128 64.5046 15.2747C64.5046 10.0078 67.5276 7.03345 71.9626 7.03345C76.7256 7.03345 79.4206 10.3181 79.4206 14.7485V16.545H68.7056ZM74.8166 12.0523C74.5528 11.55 74.1453 11.1272 73.6403 10.8316C73.1352 10.536 72.5526 10.3794 71.9581 10.3794C71.3637 10.3794 70.7811 10.536 70.276 10.8316C69.7709 11.1272 69.3635 11.55 69.0996 12.0523C68.8461 12.5999 68.7121 13.19 68.7056 13.7875H75.2106C75.2039 13.1901 75.0699 12.6 74.8166 12.0523Z" fill="#363A3F"/>
<path d="M92.6916 23.3612V13.6017C92.6916 11.4025 91.2126 10.6585 89.8666 10.6585C89.4641 10.644 89.0632 10.7123 88.6915 10.8586C88.3199 11.0049 87.9865 11.2258 87.7144 11.5058C87.4424 11.7859 87.2383 12.1184 87.1162 12.4803C86.9941 12.8423 86.9571 13.2249 87.0076 13.6017V23.3612H82.7366V7.21919H86.9066V8.70636C87.4608 8.16868 88.1252 7.74305 88.8595 7.45543C89.5938 7.16781 90.3825 7.02422 91.1776 7.03341C91.9179 7.00493 92.6567 7.11633 93.3507 7.36103C94.0446 7.60574 94.6797 7.97882 95.2186 8.45834C95.8337 9.06482 96.3066 9.78656 96.6065 10.5767C96.9065 11.3668 97.0268 12.2075 96.9596 13.0444V23.3612H92.6916Z" fill="#363A3F"/>
<path d="M106.295 23.3618C105.636 23.4056 104.976 23.3166 104.357 23.1006C103.738 22.8847 103.175 22.5468 102.706 22.1096C102.236 21.6723 101.871 21.1456 101.634 20.5647C101.398 19.9839 101.295 19.3621 101.334 18.7409V10.7514H99.5266V7.68369H101.335V2.91284H105.606V7.68369H108.629V10.7514H105.605V18.5013C105.605 19.4312 106.065 19.9574 107.084 19.9574H108.628V23.3655L106.295 23.3618Z" fill="#363A3F"/>
<path d="M131.064 23.5463C127.647 23.5463 123.409 21.812 123.409 15.2739C123.409 8.7358 127.647 7.03266 131.064 7.03266C132.116 6.98777 133.166 7.15841 134.141 7.53285C135.117 7.90728 135.995 8.47662 136.715 9.20166L133.824 11.928C133.499 11.53 133.08 11.2083 132.601 10.988C132.123 10.7676 131.596 10.6546 131.064 10.6577C130.599 10.6411 130.137 10.7278 129.715 10.9108C129.293 11.0938 128.922 11.368 128.633 11.7111C127.889 12.7595 127.552 14.0182 127.68 15.2739C127.553 16.5394 127.889 17.8077 128.633 18.8679C128.922 19.211 129.293 19.4852 129.715 19.6682C130.137 19.8512 130.599 19.9379 131.064 19.9212C131.596 19.9244 132.123 19.8113 132.601 19.591C133.08 19.3706 133.499 19.0489 133.824 18.651L136.715 21.3471C135.997 22.0764 135.12 22.6505 134.144 23.0301C133.169 23.4097 132.118 23.5858 131.064 23.5463Z" fill="#363A3F"/>
<path d="M148.051 23.3603V21.9665C147.518 22.5062 146.864 22.9257 146.136 23.194C145.408 23.4622 144.625 23.5723 143.846 23.5159C143.053 23.5715 142.256 23.4738 141.505 23.2287C140.753 22.9837 140.063 22.5966 139.476 22.091C138.526 21.0999 138.02 19.8009 138.064 18.4659C138.064 15.8942 139.937 13.7875 143.912 13.7875H147.952V12.9812C147.952 11.2158 147.033 10.4406 144.765 10.4406C144.142 10.3806 143.514 10.4715 142.939 10.7047C142.364 10.9379 141.862 11.3056 141.48 11.7731L138.753 9.26371C140.428 7.52851 142.071 7.03247 144.93 7.03247C149.73 7.03247 152.224 8.95345 152.224 12.7332V23.3603H148.051ZM147.951 16.544H144.568C143.024 16.544 142.168 17.2258 142.168 18.3716C142.168 19.4872 142.957 20.2313 144.632 20.2313C145.113 20.292 145.603 20.2542 146.068 20.1205C146.533 19.9867 146.962 19.7601 147.326 19.4561C147.573 19.1743 147.757 18.8472 147.864 18.4954C147.972 18.1435 148.001 17.7745 147.95 17.4116L147.951 16.544Z" fill="#363A3F"/>
<path d="M161.555 23.3618C160.896 23.4056 160.236 23.3166 159.617 23.1006C158.998 22.8847 158.435 22.5468 157.966 22.1096C157.496 21.6723 157.131 21.1456 156.895 20.5647C156.658 19.9839 156.555 19.3621 156.594 18.7409V10.7514H154.787V7.68369H156.594V2.91284H160.865V7.68369H163.888V10.7514H160.865V18.5013C160.865 19.4312 161.325 19.9574 162.344 19.9574H163.888V23.3655L161.555 23.3618Z" fill="#363A3F"/>
<path d="M170.394 16.544C170.353 17.0203 170.422 17.4993 170.595 17.9485C170.768 18.3977 171.041 18.8065 171.396 19.1474C171.751 19.4882 172.18 19.7531 172.653 19.924C173.126 20.0949 173.633 20.1678 174.139 20.1379C174.865 20.1827 175.593 20.069 176.265 19.8057C176.937 19.5424 177.536 19.1365 178.015 18.6196L180.615 21.0055C179.801 21.86 178.795 22.5317 177.67 22.9714C176.546 23.411 175.331 23.6074 174.115 23.5461C170.074 23.5461 166.197 21.8118 166.197 15.2737C166.197 10.0068 169.219 7.03247 173.655 7.03247C178.419 7.03247 181.113 10.3171 181.113 14.7475V16.544H170.394ZM176.504 12.0513C176.24 11.549 175.833 11.1261 175.328 10.8305C174.823 10.5348 174.24 10.3782 173.646 10.3782C173.051 10.3782 172.469 10.5348 171.964 10.8305C171.459 11.1261 171.051 11.549 170.788 12.0513C170.534 12.5989 170.4 13.1891 170.394 13.7865H176.894C176.889 13.1894 176.757 12.5992 176.505 12.0513H176.504Z" fill="#363A3F"/>
<path d="M118.708 0C117.937 0.00162453 117.198 0.291987 116.653 0.807296C116.109 1.32261 115.803 2.02072 115.804 2.74826C115.805 3.4758 116.112 4.17326 116.658 4.68742C117.204 5.20158 117.943 5.49039 118.715 5.49039C119.486 5.49039 120.226 5.20158 120.772 4.68742C121.318 4.17326 121.625 3.4758 121.626 2.74826C121.627 2.02072 121.321 1.32261 120.777 0.807296C120.232 0.291987 119.493 0.00162453 118.721 0H118.708Z" fill="#25CC7E"/>
<path d="M110.918 7.68018V11.2637H116.14V23.3743H118.027V16.4901H119.39V23.3743H121.29V7.68018H110.918Z" class="primary-letter" />
</svg>
