<svg width="368" height="80" viewBox="0 0 368 80" fill="none" xmlns="http://www.w3.org/2000/svg">
<path d="M37.9512 18.9955C37.9512 23.6895 37.8221 28.3834 37.9899 33.0774C38.1318 36.7628 36.9578 38.586 32.9071 38.5084C23.6962 38.3403 14.4724 38.3533 5.26145 38.4955C1.62353 38.5472 0.397969 37.0472 0.449571 33.53C0.591476 24.1421 0.630165 14.7541 0.436658 5.3662C0.359256 1.38344 2.02344 0.167925 5.79037 0.219649C14.7949 0.36189 23.7994 0.374822 32.791 0.219649C36.6998 0.154994 38.1576 1.75844 37.9899 5.56017C37.8092 10.0214 37.9512 14.5084 37.9512 18.9955Z" fill="white"/>
<path d="M41.6921 18.9959C41.6921 0.504515 41.6921 0.504517 60.1139 0.504517C78.7938 0.504517 78.7938 0.504517 78.7938 18.8019C78.7938 23.4959 78.6776 28.2028 78.8066 32.8968C78.9098 36.6468 77.4263 38.3278 73.5175 38.2631C64.7194 38.1209 55.9212 38.0821 47.1231 38.2761C42.7757 38.3795 41.4986 36.4011 41.6663 32.4571C41.834 27.97 41.6921 23.483 41.6921 18.9959Z" fill="white"/>
<path d="M60.6557 42.3491C64.5258 42.3362 68.396 42.5431 72.2532 42.2844C76.807 41.987 78.9614 43.4482 78.8066 48.3749C78.5357 56.9224 78.6518 65.4698 78.7421 74.0172C78.7808 77.8189 77.2199 79.3836 73.3497 79.3189C64.5516 79.1637 55.7406 79.1637 46.9425 79.3189C42.9692 79.3836 41.6921 77.5991 41.7437 73.8879C41.8727 65.1206 41.8856 56.3534 41.7437 47.5991C41.6792 43.7456 43.3046 42.1939 47.1231 42.3103C51.6383 42.4655 56.1406 42.3491 60.6557 42.3491Z" fill="white"/>
<path d="M19.5162 42.4787C23.1541 42.4787 26.8178 42.7114 30.4299 42.427C35.5514 42.0132 37.8606 43.6683 37.6026 49.1899C37.2285 57.2718 37.3962 65.3925 37.5381 73.4873C37.6155 77.5347 36.0803 79.3063 31.9006 79.2287C23.3347 79.0606 14.7688 79.0864 6.20294 79.2287C2.47472 79.2804 0.733172 78.0261 0.810574 74.0563C0.99118 65.3149 0.965379 56.5735 0.810574 47.8321C0.746072 44.0563 2.10063 42.3364 6.02236 42.4787C10.5117 42.6468 15.0139 42.5175 19.5162 42.5175C19.5162 42.4916 19.5162 42.4916 19.5162 42.4787Z" fill="white"/>
<path d="M127.751 50.2628C132.125 39.6464 136.201 30.7111 139.452 21.4654C141.465 15.724 145.722 15.8404 149.708 17.0042C151.333 17.4826 152.765 21.4266 152.83 23.8447C153.152 35.3792 152.959 46.9266 152.972 58.474C152.972 61.2154 152.778 64.2671 149.076 63.2844C147.347 62.8188 145.077 60.2456 144.999 58.5516C144.586 49.6292 144.806 40.668 143.335 31.2671C140.316 38.8188 137.556 46.4869 134.163 53.8576C132.538 57.3878 132.963 64.0085 127.39 63.0387C124.604 62.5473 122.191 57.2197 120.514 53.6507C117.251 46.7326 114.632 39.5171 111.742 32.4309C111.187 32.4826 110.633 32.5344 110.078 32.5861C110.078 39.8404 110.078 47.1076 110.078 54.3619C110.078 56.2887 110.491 58.3835 109.859 60.0775C109.33 61.474 107.343 63.4783 106.35 63.2973C104.789 63.0128 102.325 61.1507 102.299 59.9223C102.015 46.6809 102.015 33.4137 102.325 20.1723C102.351 18.9568 104.905 16.9783 106.453 16.8102C109.859 16.4223 113.754 15.4913 115.535 20.3921C118.45 28.4352 121.779 36.3232 124.952 44.2628C125.597 45.8016 126.371 47.2887 127.751 50.2628Z" fill="white"/>
<path d="M347.78 19.9009C341.846 19.707 338.156 21.763 340.388 29.1466C344.671 28.9009 350.438 33.0647 351.521 24.0259C351.715 22.4483 355.456 21.2975 358.346 19.4613C358.939 23.4569 359.313 25.9268 359.752 28.8492C361.287 29.1725 363.08 29.1725 364.448 29.9483C365.467 30.5302 366.357 32.0432 366.473 33.2328C366.563 34.138 365.376 36.0388 364.744 36.0388C358.294 36.0388 359.184 40.5388 359.21 44.5475C359.223 46.2544 359.287 47.9742 359.197 49.6811C358.939 54.6337 360.139 58.3319 366.86 57.4656C367.066 57.9828 367.26 58.5 367.466 59.0173C366.047 60.7242 364.873 63.5561 363.157 63.9311C358.165 65.0173 353.173 63.763 351.895 58.1638C350.812 53.4569 351.057 48.4138 351.121 43.513C351.173 39.194 350.889 36.1682 345.097 36.2716C339.537 36.3751 339.511 39.4785 339.588 43.3837C339.692 48.2975 339.563 53.2113 339.614 58.138C339.653 61.1897 339.395 63.6337 335.254 63.5173C331.164 63.4009 330.945 60.8794 330.958 57.8923C330.984 53.6121 331.074 49.3319 330.919 45.0647C330.79 41.4828 332.325 37.138 326.83 35.5733C326.34 35.4311 326.494 30.4397 326.856 30.3751C331.371 29.5345 330.79 25.9785 331.358 22.9526C332.454 17.1854 336.157 14.0044 341.833 13.1638C346.645 12.4785 349.444 13.9785 347.78 19.9009Z" fill="white"/>
<path d="M243.248 64.2801C232.76 64.2671 226.117 57.5301 226.117 46.9137C226.117 35.8447 233.109 28.9783 244.28 29.0947C255.001 29.1982 261.103 35.6249 260.974 46.6551C260.845 57.4913 254.007 64.293 243.248 64.2801ZM252.266 46.3576C252.175 39.6594 249.079 35.9352 243.597 35.974C237.985 35.9999 234.811 40.0473 234.915 47.043C235.005 53.5085 238.32 57.4913 243.635 57.5171C249.183 57.5301 252.369 53.418 252.266 46.3576Z" fill="white"/>
<path d="M307.196 64.2801C296.605 64.1895 290.245 57.5818 290.309 46.7585C290.387 35.5214 297.172 28.9266 308.538 29.0818C318.858 29.224 325.14 35.6766 325.179 46.1766C325.231 57.2456 318.136 64.3835 307.196 64.2801ZM316.458 46.849C316.549 40.2154 313.504 36.2197 308.202 35.987C302.591 35.7283 298.837 39.9438 298.785 46.5257C298.746 53.0171 302.5 57.543 307.906 57.5171C313.156 57.4913 316.381 53.4697 316.458 46.849Z" fill="white"/>
<path d="M265.398 55.7845C268.03 56.4311 270.507 57.5173 272.971 57.4914C274.764 57.4785 276.531 55.9914 278.311 55.1509C277.305 53.7026 276.48 52.0863 275.241 50.8707C274.377 50.0173 272.983 49.694 271.81 49.1897C266.74 47.0173 263.669 43.4483 264.753 37.7199C265.888 31.694 270.468 29.5992 276.041 29.1725C283.807 28.5776 285.548 30.1164 284.413 36.7113C282.362 36.4138 280.259 35.7414 278.247 35.9354C276.57 36.1035 274.996 37.2932 273.37 38.0302C274.299 39.5173 274.931 41.3535 276.222 42.4009C277.834 43.7069 280.556 43.9138 281.782 45.4138C283.923 48.0388 286.864 51.4526 286.555 54.2328C286.219 57.3492 283.214 61.0087 280.337 62.7802C277.744 64.3837 273.745 64.1638 270.39 64.0087C265.192 63.7888 263.269 60.9699 265.398 55.7845Z" fill="white"/>
<path d="M199.568 37.5129C194.046 35.806 187.764 33.9698 184.68 40.112C182.874 43.7068 182.72 49.5387 184.422 53.1336C187.57 59.7672 194.111 57.3103 199.658 55.7327C201.786 61.4223 199.013 63.5172 194.162 64.0861C186.874 64.9396 180.475 63.4137 176.295 56.793C172.502 50.7672 173.057 41.4051 177.379 35.6508C181.417 30.2715 189.557 27.3491 196.407 29.7284C198.523 30.4655 199.787 33.6077 201.438 35.6379C200.819 36.2586 200.187 36.8922 199.568 37.5129Z" fill="white"/>
<path d="M225.807 36.4528C215.822 37.5519 214.519 39.039 214.442 48.6855C214.416 52.3062 214.842 56.0045 214.184 59.4959C213.887 61.0476 211.565 62.8838 209.862 63.2588C208.895 63.4657 206.276 61.0088 206.224 59.6898C205.902 50.9743 205.902 42.2459 206.25 33.5303C206.302 32.2114 208.753 29.8579 210.017 29.9097C215.293 30.1036 220.544 30.9829 225.756 31.8881C226.014 31.9398 225.807 34.6295 225.807 36.4528Z" fill="white"/>
<path d="M160.428 63.3491C160.428 52.7069 160.286 42.9828 160.609 33.2586C160.647 32.0431 163.227 29.9483 164.556 30.0129C165.911 30.0647 168.246 32.2371 168.297 33.556C168.646 42.2457 168.659 50.9483 168.439 59.6509C168.284 65.8836 163.976 62.5733 160.428 63.3491Z" fill="white"/>
<path d="M164.375 26.4184C162.298 23.6382 159.782 21.621 160.118 20.4184C160.647 18.5434 163.137 17.2115 164.801 15.6469C166.323 17.3279 168.697 18.8537 169.071 20.7675C169.303 22.0089 166.646 23.8193 164.375 26.4184Z" fill="white"/>
</svg>
