<svg width="301" height="81" viewBox="0 0 301 81" fill="none" xmlns="http://www.w3.org/2000/svg">
<path d="M133.243 21.6725C136.61 20.2113 138.674 19.2026 140.815 18.4009C151.587 14.3147 161.959 18.8535 164.345 30.0259C165.752 36.6337 165.571 44.1078 163.997 50.6897C161.843 59.7414 153.832 64.5776 144.621 64.3966C137.693 64.2673 130.766 63.8147 123.838 63.75C120.11 63.7113 118.42 62.4181 118.446 58.4871C118.562 41.1983 118.652 23.9225 118.407 6.63367C118.317 0.62074 122.006 1.04746 126.005 0.931085C130.353 0.801775 133.694 1.25436 133.32 6.94402C132.998 11.5087 133.243 16.1121 133.243 21.6725ZM133.255 41.263C133.255 43.1768 133.23 45.0776 133.255 46.9914C133.372 53.4052 135.074 54.8794 141.383 53.9871C146.427 53.2759 149.665 50.3664 150.336 45.4268C151.097 39.7888 152.309 33.3492 146.569 29.7673C144.014 28.1768 139.512 28.5388 136.352 29.5216C134.778 30.013 134.017 33.7888 133.333 36.2069C132.894 37.7716 133.255 39.569 133.255 41.263Z" fill="white"/>
<path d="M250.792 40.138C251.075 25.2155 260.402 16.6423 276.141 16.8362C291.48 17.0302 301.464 27.0259 300.987 41.7543C300.536 56.1207 290.28 65.3793 275.16 65.0949C259.37 64.8104 250.495 55.7199 250.792 40.138ZM285.674 41.1983C285.352 39.1681 285.107 37.0474 284.668 34.9655C283.597 29.9483 280.579 27 275.29 27.1035C270.233 27.194 267.265 30.2845 266.595 34.9526C266.027 38.8966 266.04 43.0345 266.569 46.9785C267.201 51.7242 270.336 54.6854 275.277 54.8276C280.54 54.9828 283.572 51.944 284.733 46.9914C285.158 45.1164 285.352 43.2026 285.674 41.1983Z" fill="white"/>
<path d="M50.4867 18.8794C49.6482 21.3363 49.0676 23.3406 48.2936 25.2544C42.1014 40.4872 35.8705 55.707 29.6397 70.9268C25.2922 81.5561 23.0734 82.5777 10.9213 79.4613C11.0503 78.6984 10.9342 77.7415 11.3341 77.1337C17.8488 67.2415 16.0298 57.7372 11.1406 47.6897C6.76734 38.7156 3.70993 29.1208 0.0720215 19.8234C10.173 15.7242 14.4946 17.4699 17.9648 26.6897C20.2611 32.819 22.5832 38.9354 26.3372 45.1165C28.3367 39.6466 30.375 34.2027 32.3359 28.7199C36.4769 17.0432 36.4511 17.0432 50.4867 18.8794Z" fill="white"/>
<path d="M89.2397 60.6981C84.4794 62.1723 80.3126 64.1378 75.978 64.655C66.2124 65.8318 59.5945 60.2973 59.13 50.5861C58.6914 41.418 59.1429 32.224 58.9107 23.043C58.7817 17.5861 62.4196 18.155 65.8511 18.1938C69.3988 18.2326 73.4624 17.3145 73.3463 23.1981C73.2044 30.2456 73.385 37.293 73.6043 44.3275C73.772 49.7585 75.9651 53.3404 82.2347 52.9266C88.027 52.5387 90.5555 49.9137 90.1298 43.8619C89.6654 37.2671 90.3362 30.6076 89.9363 24.0128C89.5751 18.1033 93.0582 18.1809 97.2509 18.1033C101.702 18.0257 104.656 18.6076 104.501 24.2068C104.204 34.8749 104.565 45.5688 104.307 56.2369C104.243 58.6421 102.811 62.9999 101.856 63.0387C97.9217 63.1938 93.9354 62.0818 89.9879 61.3447C89.4977 61.2671 89.1364 60.5947 89.2397 60.6981Z" fill="white"/>
<path d="M243.322 49.0344C245.799 60.9051 244.006 63.5172 233.195 64.4094C229.79 64.6939 226.307 64.6422 222.901 64.306C210.168 63.0517 202.505 55.2801 201.899 43.293C201.19 29.2887 207.279 20.5732 220.256 18.0646C224.991 17.1465 230.125 17.056 234.885 17.7801C245.025 19.3189 246.186 21.7629 243.141 32.7413C235.401 28.9784 227.429 23.0042 219.611 32.0172C215.857 36.3361 215.806 46.1896 219.624 50.1077C227.364 58.0473 235.247 53.7154 243.322 49.0344Z" fill="white"/>
<path d="M191.36 41.0303C191.372 47.0044 191.269 52.9785 191.398 58.9527C191.501 64.3837 187.631 63.776 184.277 63.6725C180.923 63.5561 176.447 64.9915 176.46 59.0044C176.498 46.8492 176.485 34.6811 176.472 22.526C176.472 16.8622 180.768 18.2587 183.877 18.2587C186.986 18.2587 191.321 16.8234 191.347 22.4742C191.372 28.6553 191.36 34.8363 191.36 41.0303Z" fill="white"/>
<path d="M184.187 11.6897C180.046 11.5604 176.202 12.5949 176.111 6.6466C175.995 -0.0387459 180.394 1.09919 184.342 0.969875C188.457 0.827634 191.927 0.827633 191.785 6.77591C191.618 13.4742 186.883 11.0561 184.187 11.6897Z" fill="white"/>
</svg>
